ModelForces
version=1
nRows=4
nColumns=94
inDegrees=yes

This file contains the forces exerted on a model during a simulation.

A force is a generalized force, meaning that it can be either a force (N) or a torque (Nm).

Units are S.I. units (second, meters, Newtons, ...)
Angles are in degrees.

endheader 
time	addbrev_l	addlong_l	addmagDist_l	addmagIsch_l	addmagMid_l	addmagProx_l	bflh_l	bfsh_l	edl_l	ehl_l	fdl_l	fhl_l	gaslat_l	gasmed_l	glmax1_l	glmax2_l	glmax3_l	glmed1_l	glmed2_l	glmed3_l	glmin1_l	glmin2_l	glmin3_l	grac_l	iliacus_l	perbrev_l	perlong_l	piri_l	psoas_l	recfem_l	sart_l	semimem_l	semiten_l	soleus_l	tfl_l	tibant_l	tibpost_l	vasint_l	vaslat_l	vasmed_l	addbrev_r	addlong_r	addmagDist_r	addmagIsch_r	addmagMid_r	addmagProx_r	bflh_r	bfsh_r	edl_r	ehl_r	fdl_r	fhl_r	gaslat_r	gasmed_r	glmax1_r	glmax2_r	glmax3_r	glmed1_r	glmed2_r	glmed3_r	glmin1_r	glmin2_r	glmin3_r	grac_r	iliacus_r	perbrev_r	perlong_r	piri_r	psoas_r	recfem_r	sart_r	semimem_r	semiten_r	soleus_r	tfl_r	tibant_r	tibpost_r	vasint_r	vaslat_r	vasmed_r	lumbar_extension	lumbar_bending	lumbar_rotation	arm_flex_l	arm_add_l	arm_rot_l	arm_flex_r	arm_add_r	arm_rot_r	elbow_flex_l	elbow_flex_r	pro_sup_l	pro_sup_r	
          6.71122451	          7.19610226	         15.35143722	         60.94778615	         25.05000553	          6.24208879	          5.03001429	        192.32153062	         18.77433067	          4.46786888	         25.97835610	        120.99603399	        465.40923253	          0.00812478	          0.00330940	        363.61233372	        537.33208028	         27.44654349	        222.79661431	        226.19040610	        319.17142986	          7.51799769	         69.01319166	         79.53607173	          3.79397153	         32.87862790	        129.15071280	        100.80483602	        640.24328153	         71.07647779	       1378.46705734	         44.10107524	         90.09686898	          4.93057503	       3601.70483818	        170.17947906	         52.40263000	       1093.33309151	        603.61707379	       2654.79517722	        428.02326967	         54.19324943	         41.15262531	         10.16844123	         12.92087341	        126.67307076	         65.34307001	         42.22137896	         50.65633256	        111.53854325	         69.47055448	         12.90336142	         16.65911028	         18.86406675	         44.16011858	         14.68685236	         23.20942112	         17.72552193	         16.21562857	         13.15883018	         16.39662407	          8.61269022	          9.97365138	          7.62390401	         47.29504815	         78.06640649	          0.00092196	        151.50724821	        245.68985311	        135.76517381	          0.00135627	         39.43647608	         45.28398754	         10.52182869	        530.81951984	         12.56487747	        360.26734731	         83.52868685	        530.99659689	       3492.79662751	       1007.60783165	         97.47931312	        138.78724401	         -0.29902334	        -93.44954375	        -99.79970650	        -35.75535863	         21.13474012	         62.36448027	        -29.64337489	        -16.24833626	         17.01872235	         -1.89550512	         -2.29076455	
          6.72125853	        312.87037680	          0.00475267	         49.36338454	         16.35943088	         40.64287596	         76.48495648	        275.06297092	          0.25153020	         13.24193240	          0.00552569	         97.01874930	        377.23142991	        251.39943099	        454.80549077	        287.55479582	        410.64865284	         19.44551640	        127.72983680	        153.19758748	        248.43706714	          5.43292708	         53.96514874	        134.42000875	          0.00212838	         10.17016218	        284.93439888	        194.29119876	        549.64152118	         17.76085629	       1316.94811216	         29.88102082	          0.00448013	          2.36867434	       4017.85280232	        106.86487523	         51.41857148	        899.38240062	        515.06373302	       2251.03189310	        149.77157206	         55.94074667	         52.82080987	          9.66530760	         11.82150988	        105.99313775	         59.94356952	         42.07759112	         59.93166798	        117.25739079	         80.88011369	         11.48421101	         13.75986435	         21.86615825	          6.32671250	         13.83713895	         21.78632815	         16.24404931	         15.77863205	         12.58125549	         15.31848764	          7.56585712	          8.72304377	          7.88393316	         54.35730494	         85.38059864	         37.26234473	        176.13593328	        498.09979334	        149.33913612	          0.00401768	         43.39743373	        117.44358384	         11.18096358	        642.38084415	         13.75887087	        441.82441918	         67.08243194	        381.04640202	       2511.48564394	        736.67726861	         45.86522215	        150.10129034	         27.32136576	       -107.85512637	        -37.51798914	         -5.05915231	        -12.39539322	         84.12923143	        -32.08467317	        -17.11124310	          0.26112395	         -0.25169833	         -1.69490341	
          6.73129254	        346.19418636	        814.57172661	         44.06230899	         14.44706219	         40.52824996	         72.87939668	        237.88686935	        320.73466098	          0.00563879	         37.64296228	         83.16360161	        319.86112568	        362.34397720	        517.29642133	        138.55655312	        191.66709653	         10.14910178	        124.51241436	         95.81715984	        107.22780414	          5.93807674	         41.19977328	         43.94351036	        237.89544318	        396.07967936	         34.62511258	         66.93518538	        459.92559918	        667.96599917	       1001.09787107	        144.27328863	        391.22780796	         49.80009853	        131.00360216	        108.50877645	        104.87582493	        745.06891858	        239.96650066	       1205.97535786	        315.77831433	         61.41174360	         72.72122737	          8.63009672	         10.00597039	         84.17982823	         56.46439305	        129.49892386	         55.31707681	        139.76302404	        103.46660894	          0.00174226	          0.00742474	          0.02185175	        183.54513069	         29.37192954	         45.41069559	         32.44549252	         15.12684361	         11.60443245	         37.24197538	          6.65820322	          7.45053625	         10.37088109	         50.97570560	        104.70239008	         52.27376314	        178.80758965	        788.97969716	        142.36540367	          2.51660661	         36.93802985	        224.39739945	         11.36153809	        622.87995127	         14.86431769	        550.03510915	          0.00145590	        209.17126697	       1656.91461385	        440.31931445	        -40.34202557	         86.22965967	         42.83538693	        -65.03098454	          3.87910451	         12.62181965	         28.34996189	        100.40357336	        -36.28869170	         -4.02493265	          8.37340925	          0.40683251	         -1.32013302	
          6.74132656	        311.23977655	        757.97813485	         45.97122633	         15.34100965	         41.80179920	         69.52125223	          2.41541098	        315.92335916	         88.42164485	         30.52449450	         76.37109468	        282.07718425	        333.77097411	          0.00340512	        100.93132960	        144.94986048	         10.04445218	         58.05849331	         52.29767730	         64.04156758	          2.58194410	         21.19567265	         16.97170006	        223.30777120	        384.92150538	        142.17715368	        110.66867887	         25.78102686	        512.38688450	       1251.38659849	        121.54008257	          4.17839124	        171.20445153	        733.31728783	         99.92994289	        108.62207339	        683.79264575	        596.46389639	       2245.78404142	        215.99383364	         60.31863403	         80.68920807	          7.83334472	          8.76332666	         67.42031966	         49.39808662	        361.49951293	         94.41710522	        172.34247972	        119.63733972	         23.62936018	         46.05374797	        122.54497384	          0.02546665	         23.47025716	         36.04306325	         24.92388835	         15.08443065	         10.87528554	         29.17426058	          5.91970149	          6.43238316	          8.74070697	         44.91494736	        125.31921784	         72.86638348	        191.15003163	        804.53937961	        267.74280977	         25.88130123	        127.00419875	        272.46009696	         11.42442093	        108.18208128	         20.11539558	        166.50192657	        130.07896838	        130.34542485	       1003.20953222	        276.64201025	         16.78841622	        102.57480890	         32.36305479	        -28.85541734	        -34.60970480	         -8.84309607	         19.47508312	         37.76722477	        -10.74860337	         -3.94783450	         14.54509438	         -0.26445670	         -0.16026117	
